<svg width="150" height="132" viewBox="0 0 150 132" fill="none" xmlns="http://www.w3.org/2000/svg">
<path d="M59.3042 99.3065V24.3816H50.2995V99.3065V108.766H59.3042H116.371V99.3065H59.3042Z" fill="black"/>
<path d="M48.5431 33.0798H36.6526V42.8527H48.5431V33.0798Z" fill="#2C5364"/>
<path d="M95.6944 51.0293C96.6248 52.5827 96.1187 56.4797 96.1187 56.4797H105.972L105.903 55.748C104.934 45.3966 98.0979 36.6234 88.5549 33.6764C87.0775 33.2194 86.1363 33.0798 86.1363 33.0798H61.0608V42.8527H83.7952C90.9197 43.6564 94.3548 48.4696 95.6944 51.0293Z" fill="#2C5364"/>
<path d="M76.7642 97.4712V73.3239V45.0837H66.6569V97.4712H76.7642Z" fill="#2C5364"/>
<path d="M84.7601 113.766H36.1017V123.181H85.4493C95.815 121.704 101.001 114.701 103.187 110.61H91.1867C88.3611 112.801 84.7601 113.766 84.7601 113.766Z" fill="#2C5364"/>
<path d="M105.968 59.2905H97.1144C96.7806 63.129 94.4266 73.8969 78.5215 73.4219V82.9043C83.2252 82.5125 95.8308 82.8502 97.0864 97.4746H105.953C106.095 94.0324 105.606 84.5545 96.7957 78.1293C96.7957 78.1293 105.65 72.724 105.968 59.2905Z" fill="#2C5364"/>
<path d="M21.6743 102.48C16.3999 93.2157 13.613 82.2744 13.7315 71.2792L13.7272 70.7636C13.7229 70.5925 13.7272 70.4192 13.7358 70.2481L13.781 69.217C13.8133 68.5303 13.837 67.8414 13.8801 67.1548L14.0718 65.0971L14.1687 64.0683L14.313 63.044L14.6059 60.9953C14.7308 60.3177 14.8686 59.6423 14.9979 58.9646L15.196 57.9471C15.2649 57.6094 15.3575 57.2762 15.4351 56.9407L15.9304 54.9281C16.1092 54.2617 16.3181 53.6043 16.5119 52.9402L16.807 51.9474C16.9039 51.6142 17.031 51.2945 17.1429 50.9681L17.8343 49.0162C18.0755 48.3701 18.349 47.7375 18.6053 47.0959L18.9973 46.1368C19.1244 45.8149 19.2816 45.5087 19.4237 45.1958L20.296 43.3205C20.5996 42.7014 20.927 42.0958 21.2457 41.4857L21.7282 40.5716C21.8897 40.2677 22.0728 39.9773 22.2451 39.6779L23.2939 37.8994C23.6579 37.3163 24.0434 36.7467 24.4181 36.1704L24.9846 35.3081C25.1784 35.0245 25.3852 34.7498 25.5833 34.4707L26.7937 32.8025C27.2158 32.2622 27.6465 31.7309 28.0773 31.1973L28.7234 30.3958L29.4039 29.6259L30.7672 28.0905L32.1994 26.6227C32.4385 26.3796 32.6754 26.1319 32.9188 25.891L33.6683 25.1931C34.1679 24.7294 34.6654 24.2588 35.1715 23.8018L36.733 22.4826C36.9957 22.2665 37.252 22.0391 37.5212 21.832L38.3332 21.2151C38.8759 20.8076 39.4122 20.3866 39.9635 19.9882L41.6456 18.8355C41.9277 18.6464 42.2012 18.4438 42.492 18.2682L43.3577 17.7346C43.9371 17.3834 44.5078 17.0142 45.0979 16.6788C54.5053 11.2869 65.3211 8.51336 76.0659 8.85106C78.7538 8.88933 81.4308 9.20676 84.0906 9.60298L86.0742 9.9767C86.4037 10.042 86.7354 10.0983 87.0649 10.1681L88.047 10.4067L90.009 10.8862L91.9473 11.467L92.9143 11.762L93.8684 12.1042L95.7723 12.7908L97.6438 13.572L98.5785 13.9637L99.496 14.4005L101.327 15.2807L103.114 16.2488L104.008 16.7351L104.878 17.2641L106.612 18.3312L108.296 19.4816L109.136 20.0579L109.95 20.6748L111.574 21.913L113.142 23.2278C113.402 23.4484 113.667 23.6623 113.921 23.8874L114.675 24.583C115.175 25.0468 115.683 25.5061 116.172 25.9811L117.606 27.4489C117.843 27.6965 118.089 27.9329 118.317 28.1896L119 28.9573C119.452 29.4728 119.917 29.9748 120.355 30.5016L121.647 32.1046C122.086 32.6291 122.485 33.1919 122.892 33.7458L123.499 34.5787C123.699 34.8579 123.91 35.128 124.093 35.4207C124.843 36.5756 125.625 37.7058 126.303 38.9102L126.829 39.7995C127.003 40.0966 127.182 40.3893 127.339 40.6977L128.304 42.528C128.638 43.1314 128.911 43.7662 129.211 44.3898L129.648 45.3286C129.794 45.6415 129.941 45.9522 130.066 46.2764C130.585 47.5574 131.132 48.8249 131.567 50.1396C132.521 52.7331 133.238 55.4121 133.845 58.1069C134.102 59.4667 134.407 60.8129 134.578 62.1862C134.675 62.8706 134.784 63.5505 134.866 64.2371L135.062 66.2993C135.092 66.6438 135.129 66.986 135.155 67.3304L135.202 68.3637L135.293 70.4282C135.297 71.1171 135.29 71.806 135.288 72.4926L135.284 73.5237C135.288 73.8681 135.258 74.2103 135.245 74.5548C135.015 80.0479 134.097 85.4915 132.493 90.6807C131.696 93.2765 130.725 95.8046 129.6 98.2495L128.722 100.062L127.789 101.84L126.803 103.583L125.754 105.283C128.116 100.494 129.9 95.4399 131.058 90.262C132.213 85.084 132.736 79.7845 132.622 74.521C132.622 73.8636 132.579 73.2063 132.544 72.5489L132.437 70.5813L132.237 68.6226L132.137 67.6456C132.094 67.3214 132.041 66.9972 131.993 66.673L131.702 64.7324C131.593 64.0886 131.453 63.4492 131.33 62.8076C131.106 61.5198 130.748 60.2636 130.447 58.9984C129.738 56.495 128.969 54.0118 127.97 51.6277C127.511 50.4165 126.947 49.2571 126.413 48.0842C126.284 47.7893 126.133 47.5033 125.984 47.2197L125.543 46.3619C125.246 45.7924 124.97 45.2093 124.638 44.66C119.65 35.6774 112.444 28.1378 103.989 22.8518L102.378 21.9085L101.574 21.4335L100.749 20.999L99.0997 20.1322L97.4134 19.3488L96.5691 18.9593L95.7077 18.6126L93.9869 17.917L92.2359 17.3114L91.3615 17.0075L90.472 16.7508L88.6974 16.2308L86.9012 15.8008L86.0031 15.5846C85.7016 15.5216 85.3979 15.4721 85.0964 15.4135L83.2808 15.0781C80.8471 14.7269 78.3984 14.4477 75.9367 14.4185C73.4772 14.3127 71.0177 14.468 68.5689 14.6796L66.7383 14.9183L65.823 15.0376L64.9141 15.2042L63.0985 15.5374L61.3002 15.9584C56.4953 17.0705 51.8756 18.9616 47.4993 21.3164C46.9523 21.6136 46.4225 21.9423 45.884 22.2529L45.0764 22.7257C44.805 22.8811 44.5509 23.0634 44.2881 23.23L42.7202 24.2566C42.2055 24.6123 41.7059 24.9905 41.1976 25.3552L40.4373 25.9068C40.1854 26.0936 39.9463 26.2985 39.7008 26.4921L38.2276 27.6673C37.7495 28.077 37.2822 28.4958 36.8062 28.91L36.0955 29.5336C35.865 29.7497 35.641 29.9726 35.4149 30.191L34.0538 31.508L32.7529 32.8925L32.1025 33.5859L31.4844 34.3108L30.246 35.7584L29.0701 37.2623C28.8763 37.5144 28.6738 37.7598 28.4843 38.0187L27.9308 38.7999C27.5647 39.3222 27.1878 39.8377 26.8281 40.3668L25.7943 41.9854C25.6242 42.2579 25.4433 42.5212 25.2839 42.7982L24.8058 43.6334C24.4892 44.1917 24.1554 44.741 23.8474 45.3061L22.9601 47.0216C22.8158 47.3097 22.6543 47.5889 22.5229 47.8838L22.1201 48.7641C21.8552 49.3516 21.5709 49.9325 21.3211 50.5291L20.5953 52.3301C20.479 52.6318 20.3455 52.9267 20.24 53.2351L19.9169 54.1536C19.7058 54.766 19.4776 55.3761 19.2773 55.9929L18.7173 57.8615C18.6268 58.1744 18.5235 58.4829 18.4438 58.798L18.209 59.7481C18.054 60.3807 17.8924 61.0133 17.7417 61.6482L17.3562 63.5708L17.1623 64.5343L17.0159 65.5046L16.7208 67.4497C16.6433 68.1003 16.5851 68.7555 16.5162 69.4083C16.4495 70.0612 16.3719 70.7163 16.3482 71.3737L16.2362 73.3458C16.2276 73.5102 16.2147 73.6745 16.2104 73.8389L16.2018 74.3342L16.1846 75.3225C16.1716 75.9821 16.1932 76.6417 16.1953 77.3036C16.2082 77.9632 16.2427 78.6228 16.2621 79.2847C16.3848 81.9277 16.6907 84.564 17.1343 87.18C18.0281 92.4232 19.5572 97.5674 21.6743 102.48Z" fill="black"/>
<path d="M31.827 91.5748C34.2202 91.5748 36.1602 89.5468 36.1602 87.0452C36.1602 84.5436 34.2202 82.5156 31.827 82.5156C29.4338 82.5156 27.4938 84.5436 27.4938 87.0452C27.4938 89.5468 29.4338 91.5748 31.827 91.5748Z" fill="black"/>
<path d="M39.7402 61.5962C40.9582 61.5962 41.9456 60.5641 41.9456 59.2909C41.9456 58.0177 40.9582 56.9856 39.7402 56.9856C38.5222 56.9856 37.5348 58.0177 37.5348 59.2909C37.5348 60.5641 38.5222 61.5962 39.7402 61.5962Z" fill="black"/>
<path d="M114.833 82.8491C116.26 82.8491 117.417 81.6396 117.417 80.1476C117.417 78.6556 116.26 77.446 114.833 77.446C113.405 77.446 112.248 78.6556 112.248 80.1476C112.248 81.6396 113.405 82.8491 114.833 82.8491Z" fill="black"/>
<path d="M74.5072 26.578C75.9762 26.578 77.167 25.3332 77.167 23.7977C77.167 22.2621 75.9762 21.0173 74.5072 21.0173C73.0382 21.0173 71.8474 22.2621 71.8474 23.7977C71.8474 25.3332 73.0382 26.578 74.5072 26.578Z" fill="black"/>
</svg>
